<?xml version="1.0" encoding="UTF-8"?>
<!DOCTYPE svg PUBLIC "-//W3C//DTD SVG 1.1//EN" "http://www.w3.org/Graphics/SVG/1.1/DTD/svg11.dtd">
<!-- Creator: CorelDRAW 2019 -->
<svg xmlns="http://www.w3.org/2000/svg" xml:space="preserve" width="251px" height="251px" version="1.1" style="shape-rendering:geometricPrecision; text-rendering:geometricPrecision; image-rendering:optimizeQuality; fill-rule:evenodd; clip-rule:evenodd"
viewBox="0 0 50.52 50.52"
 xmlns:xlink="http://www.w3.org/1999/xlink"
 xmlns:xodm="http://www.corel.com/coreldraw/odm/2003">
 <defs>
  <style type="text/css">
   <![CDATA[
    .fil0 {fill:#7CBC63}
    .fil1 {fill:#468040;fill-rule:nonzero}
   ]]>
  </style>
 </defs>
 <g id="Layer_x0020_1">
  <metadata id="CorelCorpID_0Corel-Layer"/>
  <circle class="fil0" cx="25.26" cy="25.26" r="25.26"/>
  <path class="fil1" d="M6.9 25.26l36.65 0c0,0 2.26,17.32 -18.01,17.32 0,0 -18.64,1.1 -18.64,-17.32z"/>
  <path class="fil1" d="M11.69 18.82l0 -0.02c-0.01,-0.1 -0.08,-0.61 -0.08,-1.27 -0.01,-0.84 0.12,-1.93 0.55,-2.73 0.22,-0.4 0.5,-0.72 0.88,-0.96 0.37,-0.23 0.86,-0.38 1.55,-0.39 0.76,0.01 1.29,0.19 1.71,0.48 0.63,0.44 1.03,1.15 1.25,1.95 0.23,0.79 0.29,1.63 0.29,2.22 0,0.23 -0.01,0.42 -0.02,0.55l-0.01 0.15 0 0.05c-0.04,0.32 0.2,0.62 0.52,0.65 0.33,0.04 0.62,-0.19 0.66,-0.52 0,-0.02 0.04,-0.36 0.04,-0.88 -0.01,-0.88 -0.1,-2.26 -0.69,-3.5 -0.3,-0.62 -0.74,-1.21 -1.36,-1.64 -0.62,-0.44 -1.43,-0.7 -2.39,-0.69 -0.87,0 -1.6,0.2 -2.18,0.56 -0.88,0.55 -1.37,1.4 -1.65,2.25 -0.27,0.86 -0.34,1.74 -0.34,2.45 0,0.85 0.1,1.46 0.1,1.48 0.06,0.33 0.36,0.54 0.69,0.49 0.32,-0.05 0.54,-0.36 0.48,-0.68z"/>
  <path class="fil1" d="M40 19.01c0,-0.02 0.1,-0.63 0.1,-1.48 0,-0.95 -0.11,-2.2 -0.69,-3.29 -0.29,-0.54 -0.71,-1.05 -1.3,-1.41 -0.58,-0.36 -1.31,-0.56 -2.17,-0.56 -0.97,-0.01 -1.77,0.25 -2.4,0.69 -0.94,0.65 -1.44,1.64 -1.71,2.59 -0.28,0.95 -0.33,1.89 -0.33,2.55 0,0.52 0.03,0.86 0.04,0.88 0.03,0.33 0.33,0.56 0.65,0.52 0.33,-0.03 0.56,-0.33 0.53,-0.65l-0.01 -0.05c-0.01,-0.1 -0.03,-0.35 -0.03,-0.7 0,-0.78 0.11,-2.02 0.57,-2.99 0.24,-0.48 0.55,-0.89 0.97,-1.18 0.42,-0.29 0.96,-0.47 1.72,-0.48 0.68,0.01 1.17,0.16 1.55,0.39 0.56,0.35 0.92,0.92 1.14,1.61 0.22,0.68 0.29,1.45 0.29,2.08 0,0.38 -0.03,0.7 -0.05,0.93 -0.01,0.12 -0.02,0.21 -0.03,0.27l-0.01 0.07 0 0.02c-0.06,0.32 0.16,0.63 0.49,0.68 0.32,0.05 0.62,-0.17 0.68,-0.49z"/>
 </g>
</svg>
