<?xml version="1.0" encoding="UTF-8"?>
<!DOCTYPE svg PUBLIC "-//W3C//DTD SVG 1.1//EN" "http://www.w3.org/Graphics/SVG/1.1/DTD/svg11.dtd">
<!-- Creator: CorelDRAW 2019 -->
<svg xmlns="http://www.w3.org/2000/svg" xml:space="preserve" width="251px" height="251px" version="1.1" style="shape-rendering:geometricPrecision; text-rendering:geometricPrecision; image-rendering:optimizeQuality; fill-rule:evenodd; clip-rule:evenodd"
viewBox="0 0 62.92 62.92"
 xmlns:xlink="http://www.w3.org/1999/xlink"
 xmlns:xodm="http://www.corel.com/coreldraw/odm/2003">
 <defs>
  <style type="text/css">
   <![CDATA[
    .fil1 {fill:#C85227;fill-rule:nonzero}
    .fil0 {fill:#F0824D;fill-rule:nonzero}
   ]]>
  </style>
 </defs>
 <g id="Layer_x0020_1">
  <metadata id="CorelCorpID_0Corel-Layer"/>
  <g id="_-1709454432">
   <path class="fil0" d="M62.92 31.46c0,17.38 -14.08,31.46 -31.46,31.46 -17.38,0 -31.46,-14.08 -31.46,-31.46 0,-17.37 14.08,-31.46 31.46,-31.46 17.38,0 31.46,14.09 31.46,31.46z"/>
   <g>
    <path class="fil1" d="M21.85 27.69l-6.34 0c-0.08,-0.28 -0.13,-0.57 -0.13,-0.86 0,-1.83 1.47,-3.31 3.3,-3.31 1.82,0 3.3,1.48 3.3,3.31 0,0.29 -0.05,0.58 -0.13,0.86z"/>
    <path class="fil1" d="M47.14 27.69l-6.34 0c-0.08,-0.28 -0.13,-0.57 -0.13,-0.86 0,-1.83 1.48,-3.31 3.3,-3.31 1.82,0 3.3,1.48 3.3,3.31 0,0.29 -0.05,0.58 -0.13,0.86z"/>
    <path class="fil1" d="M18.68 39.92c-0.13,0 -0.25,-0.04 -0.35,-0.13 -0.22,-0.2 -0.23,-0.53 -0.04,-0.74 0.03,-0.03 1.37,-1.51 3.86,-3 2.49,-1.49 6.13,-2.98 10.74,-2.98l0 0c3.71,0 8.04,0.97 12.85,3.66 0.25,0.14 0.34,0.46 0.2,0.71 -0.09,0.17 -0.27,0.27 -0.45,0.27 -0.09,0 -0.18,-0.02 -0.26,-0.07 -4.67,-2.61 -8.81,-3.52 -12.34,-3.52 -0.01,0 -0.01,0 -0.02,0 -8.19,0 -13.19,4.98 -13.75,5.57l-0.05 0.06c-0.11,0.11 -0.25,0.17 -0.39,0.17z"/>
   </g>
  </g>
 </g>
</svg>
