<?xml version="1.0" encoding="UTF-8"?>
<!DOCTYPE svg PUBLIC "-//W3C//DTD SVG 1.1//EN" "http://www.w3.org/Graphics/SVG/1.1/DTD/svg11.dtd">
<!-- Creator: CorelDRAW 2019 -->
<svg xmlns="http://www.w3.org/2000/svg" xml:space="preserve" width="251px" height="251px" version="1.1" style="shape-rendering:geometricPrecision; text-rendering:geometricPrecision; image-rendering:optimizeQuality; fill-rule:evenodd; clip-rule:evenodd"
viewBox="0 0 126.62 126.62"
 xmlns:xlink="http://www.w3.org/1999/xlink"
 xmlns:xodm="http://www.corel.com/coreldraw/odm/2003">
 <defs>
  <style type="text/css">
   <![CDATA[
    .fil1 {fill:#508D3B;fill-rule:nonzero}
    .fil0 {fill:#ADCE71;fill-rule:nonzero}
   ]]>
  </style>
 </defs>
 <g id="Layer_x0020_1">
  <metadata id="CorelCorpID_0Corel-Layer"/>
  <path class="fil0" d="M126.62 63.31c0,34.96 -28.35,63.31 -63.31,63.31 -34.96,0 -63.31,-28.35 -63.31,-63.31 0,-34.97 28.35,-63.31 63.31,-63.31 34.96,0 63.31,28.34 63.31,63.31z"/>
  <path class="fil1" d="M89.03 60.81c-3.67,0 -6.64,-2.98 -6.64,-6.64 0,-3.67 2.97,-6.64 6.64,-6.64 3.67,0 6.64,2.97 6.64,6.64 0,3.66 -2.97,6.64 -6.64,6.64z"/>
  <path class="fil1" d="M37.59 60.81c-3.67,0 -6.64,-2.98 -6.64,-6.64 0,-3.67 2.97,-6.64 6.64,-6.64 3.67,0 6.64,2.97 6.64,6.64 0,3.66 -2.97,6.64 -6.64,6.64z"/>
  <path class="fil1" d="M62.8 80.14c-0.01,0 -0.02,0 -0.03,0 -7.86,0 -14.34,-2.67 -18.84,-5.32 -4.5,-2.66 -7.05,-5.31 -7.1,-5.36l0 0c-0.4,-0.42 -0.39,-1.08 0.03,-1.49 0.2,-0.19 0.47,-0.29 0.73,-0.29 0.27,0 0.55,0.11 0.75,0.33l0.1 0.09 0.32 0.31c0.29,0.27 0.72,0.66 1.29,1.13 1.13,0.94 2.81,2.21 4.95,3.47 4.28,2.52 10.4,5.03 17.77,5.03 7.39,0 16.07,-2.49 25.61,-10.13 0.19,-0.15 0.42,-0.23 0.65,-0.23 0.31,0 0.61,0.14 0.82,0.39 0.36,0.46 0.29,1.12 -0.16,1.48 -9.84,7.89 -19.04,10.59 -26.89,10.59z"/>
 </g>
</svg>
