<?xml version="1.0" encoding="UTF-8"?>
<!DOCTYPE svg PUBLIC "-//W3C//DTD SVG 1.1//EN" "http://www.w3.org/Graphics/SVG/1.1/DTD/svg11.dtd">
<!-- Creator: CorelDRAW 2019 -->
<svg xmlns="http://www.w3.org/2000/svg" xml:space="preserve" width="251px" height="251px" version="1.1" style="shape-rendering:geometricPrecision; text-rendering:geometricPrecision; image-rendering:optimizeQuality; fill-rule:evenodd; clip-rule:evenodd"
viewBox="0 0 35.99 35.99"
 xmlns:xlink="http://www.w3.org/1999/xlink"
 xmlns:xodm="http://www.corel.com/coreldraw/odm/2003">
 <defs>
  <style type="text/css">
   <![CDATA[
    .fil1 {fill:#C73727;fill-rule:nonzero}
    .fil0 {fill:#E95060;fill-rule:nonzero}
   ]]>
  </style>
 </defs>
 <g id="Layer_x0020_1">
  <metadata id="CorelCorpID_0Corel-Layer"/>
  <path class="fil0" d="M35.99 17.99c0,9.94 -8.06,18 -18,18 -9.93,0 -17.99,-8.06 -17.99,-18 0,-9.93 8.06,-17.99 17.99,-17.99 9.94,0 18,8.06 18,17.99z"/>
  <path class="fil1" d="M12.74 22.09l-3.63 0c-0.04,-0.16 -0.07,-0.32 -0.07,-0.49 0,-1.04 0.84,-1.89 1.89,-1.89 1.04,0 1.88,0.85 1.88,1.89 0,0.17 -0.03,0.33 -0.07,0.49z"/>
  <path class="fil1" d="M26.26 22.09l-3.63 0c-0.04,-0.16 -0.08,-0.32 -0.08,-0.49 0,-1.04 0.85,-1.89 1.89,-1.89 1.04,0 1.89,0.85 1.89,1.89 0,0.17 -0.03,0.33 -0.07,0.49z"/>
  <path class="fil1" d="M10.16 28.48c-0.08,0 -0.17,-0.04 -0.23,-0.11 -0.1,-0.13 -0.08,-0.32 0.05,-0.42 2.8,-2.25 5.4,-3 7.62,-3 4.42,0 7.36,2.98 7.4,3.02 0.11,0.12 0.11,0.31 -0.01,0.43 -0.06,0.05 -0.13,0.08 -0.21,0.08 -0.07,0 -0.15,-0.03 -0.21,-0.09 -0.17,-0.18 -2.84,-2.87 -6.91,-2.87 -2.11,0 -4.6,0.72 -7.31,2.89 -0.06,0.05 -0.12,0.07 -0.19,0.07z"/>
 </g>
</svg>
