<?xml version="1.0" encoding="UTF-8"?>
<!DOCTYPE svg PUBLIC "-//W3C//DTD SVG 1.1//EN" "http://www.w3.org/Graphics/SVG/1.1/DTD/svg11.dtd">
<!-- Creator: CorelDRAW 2019 -->
<svg xmlns="http://www.w3.org/2000/svg" xml:space="preserve" width="251px" height="251px" version="1.1" style="shape-rendering:geometricPrecision; text-rendering:geometricPrecision; image-rendering:optimizeQuality; fill-rule:evenodd; clip-rule:evenodd"
viewBox="0 0 250.17 250.17"
 xmlns:xlink="http://www.w3.org/1999/xlink"
 xmlns:xodm="http://www.corel.com/coreldraw/odm/2003">
 <defs>
  <style type="text/css">
   <![CDATA[
    .fil1 {fill:#CC8724;fill-rule:nonzero}
    .fil0 {fill:#FBD138;fill-rule:nonzero}
   ]]>
  </style>
 </defs>
 <g id="Layer_x0020_1">
  <metadata id="CorelCorpID_0Corel-Layer"/>
  <path class="fil0" d="M250.17 125.08c0,69.08 -56.01,125.09 -125.09,125.09 -69.08,0 -125.08,-56.01 -125.08,-125.09 0,-69.08 56,-125.08 125.08,-125.08 69.08,0 125.09,56 125.09,125.08z"/>
  <path class="fil1" d="M176.16 93.97c-7.25,0 -13.12,-5.87 -13.12,-13.12 0,-7.25 5.87,-13.12 13.12,-13.12 7.24,0 13.12,5.87 13.12,13.12 0,7.25 -5.88,13.12 -13.12,13.12z"/>
  <path class="fil1" d="M161.94 182.44c-1.07,0 -1.98,-0.82 -2.06,-1.9 -0.82,-9.99 2.37,-20.15 8.74,-27.89l0.4 -0.49c1.26,-1.51 2.45,-2.94 2.47,-4.39 0.02,-1.59 -1.45,-2.95 -2.84,-3.53 -1.45,-0.61 -3.14,-0.75 -4.89,-0.75 -0.46,0 -0.92,0.01 -1.38,0.02 -2.99,0.08 -5.97,0.24 -8.95,0.49 0.3,-0.03 0.61,-0.14 0.89,-0.32 0.96,-0.62 1.24,-1.9 0.61,-2.86 0,-0.02 -0.24,-0.41 -0.58,-1.05 2.64,-0.21 5.28,-0.34 7.93,-0.41 0.47,-0.01 0.96,-0.02 1.45,-0.02 2.19,0 4.43,0.19 6.54,1.08 2.7,1.15 5.41,3.88 5.36,7.4 -0.03,2.92 -1.92,5.18 -3.43,6.99l-0.39 0.47c-5.68,6.92 -8.52,16 -7.8,24.92 0.09,1.14 -0.76,2.15 -1.9,2.24l-0.17 0zm-67.84 -21.23c-0.75,0 -1.47,-0.4 -1.84,-1.11 -0.53,-1.01 -0.14,-2.26 0.87,-2.8 17.6,-9.22 37.02,-15.06 56.79,-17.13 0.75,1.67 1.45,2.76 1.53,2.89 0.4,0.62 1.06,0.95 1.74,0.95 0.04,0 0.08,0 0.12,0 -20.27,1.73 -40.24,7.52 -58.25,16.97 -0.31,0.16 -0.64,0.23 -0.96,0.23z"/>
  <path class="fil1" d="M153.19 144.01c-0.68,0 -1.34,-0.33 -1.74,-0.95 -0.08,-0.13 -0.78,-1.22 -1.53,-2.89 -1.52,-3.4 -3.29,-9.16 -0.66,-14.04 0.38,-0.7 1.09,-1.1 1.83,-1.1 0.33,0 0.67,0.09 0.98,0.26 1.01,0.54 1.38,1.8 0.84,2.81 -2.13,3.94 0.25,9.4 1.44,11.67 0.34,0.64 0.58,1.03 0.58,1.05 0.63,0.96 0.35,2.24 -0.61,2.86 -0.28,0.18 -0.59,0.29 -0.89,0.32 -0.04,0.01 -0.08,0.01 -0.12,0.01 -0.04,0 -0.08,0 -0.12,0z"/>
  <path class="fil1" d="M74.52 93.97c-7.25,0 -13.12,-5.87 -13.12,-13.12 0,-1.2 0.21,-2.33 0.51,-3.43l25.22 0c0.3,1.1 0.51,2.23 0.51,3.43 0,7.25 -5.88,13.12 -13.12,13.12z"/>
 </g>
</svg>
